<?xml version="1.0" encoding="UTF-8"?>
<svg version="1.1" xmlns="http://www.w3.org/2000/svg" width="1976" height="1951" viewBox="0 0 1976 1951">
<path d="M0 0 C1.7444234 0.00629569 3.48884905 0.01199445 5.23327637 0.01708984 C9.42771085 0.03060058 13.622032 0.05202473 17.81640625 0.078125 C17.81738306 1.38335357 17.81835987 2.68858215 17.81936628 4.0333631 C17.86261365 61.5591359 17.90956311 119.08490484 17.97538757 176.61065674 C17.97638314 177.48162759 17.97737871 178.35259845 17.97840444 179.24996236 C18.00006319 198.17869783 18.0223859 217.10743247 18.04539253 236.03616636 C18.05667101 245.31886987 18.06780277 254.60157356 18.07885742 263.88427734 C18.07995999 264.80801586 18.08106255 265.73175438 18.08219853 266.68348498 C18.11786436 296.62222349 18.14384306 326.56096089 18.16479594 356.49971301 C18.18637968 387.26675513 18.21774094 418.03377217 18.26139738 448.80079126 C18.26755959 453.14683932 18.27361007 457.49288754 18.27959251 461.83893585 C18.2807734 462.69429692 18.28195428 463.54965799 18.28317094 464.4309391 C18.30188935 478.19753848 18.31030669 491.96412579 18.31486749 505.73073634 C18.3196731 519.57225086 18.33534147 533.41371939 18.36207191 547.25520924 C18.37762175 555.47775956 18.38486879 563.70021915 18.38017554 571.92278337 C18.37758776 578.06503109 18.39060076 584.20715336 18.40964177 590.34937003 C18.41491346 592.83273782 18.4151406 595.31612254 18.40980188 597.79949018 C18.40327883 601.17798684 18.41521523 604.55594661 18.43164539 607.93439865 C18.42223035 609.37674715 18.42223035 609.37674715 18.4126251 610.848234 C18.50792134 621.50532 20.3496408 631.16796493 27.81640625 639.078125 C28.30753906 639.63242187 28.79867187 640.18671875 29.3046875 640.7578125 C37.24004556 648.67347985 49.02733857 649.58501619 59.67130014 649.60794023 C61.16638267 649.59854843 62.6614629 649.58878706 64.15654087 649.57869625 C65.78140067 649.58257247 67.40625705 649.58820057 69.03110549 649.59540585 C73.48217219 649.6100973 77.93288503 649.60002896 82.38394037 649.58579386 C87.23163406 649.57471773 92.07927954 649.58690998 96.92696947 649.59610134 C105.41858708 649.60899713 113.9101003 649.60704939 122.40171814 649.59532166 C135.02901464 649.57792999 147.65622913 649.58344178 160.28352989 649.59348857 C182.83595922 649.61068008 205.38833994 649.60514003 227.94076827 649.59013138 C247.67609194 649.57708205 267.41139874 649.57188317 287.14672661 649.57444954 C288.45557555 649.57460995 289.76442449 649.57477037 291.11293552 649.57493565 C296.4259057 649.57559923 301.73887588 649.57630164 307.05184604 649.57706099 C321.90327707 649.57917251 336.75470801 649.57992512 351.60613918 649.5796442 C352.62054365 649.57962563 352.62054365 649.57962563 353.65544113 649.57960669 C375.20083676 649.57911738 396.74622637 649.57269396 418.2916193 649.56208706 C418.99031625 649.56174362 419.6890132 649.56140018 420.40888278 649.56104634 C431.75495332 649.55544785 443.10102368 649.54951356 454.44709403 649.54355728 C499.44821883 649.51995505 544.44930973 649.513763 589.45043945 649.52416992 C592.2943764 649.52482313 595.13831334 649.52547445 597.98225028 649.52612542 C599.03698495 649.52636698 599.03698495 649.52636698 600.1130274 649.52661341 C607.90039717 649.52839291 615.68776696 649.53011506 623.47513676 649.53176785 C624.17349448 649.53191721 624.87185221 649.53206658 625.59137229 649.53222047 C663.2978774 649.54022112 701.00437912 649.53407898 738.71088308 649.52307183 C742.69189679 649.52192401 746.6729105 649.52078083 750.65392421 649.519645 C753.29485283 649.51888975 755.93578145 649.51812411 758.57671006 649.51734799 C778.3010265 649.5116878 798.02533449 649.51302087 817.74965096 649.51757622 C840.17467507 649.52268166 862.59966756 649.51684148 885.02468378 649.49668192 C897.57755406 649.48568773 910.13036216 649.4829097 922.68323435 649.49197045 C931.06548883 649.49718491 939.44769004 649.49150506 947.82993334 649.47691711 C952.60745364 649.46890327 957.38484816 649.46560769 962.16236783 649.47548967 C966.51133034 649.48438291 970.86005122 649.47940366 975.20899178 649.46351023 C976.76978157 649.46020457 978.33059222 649.46187752 979.89136816 649.46923872 C992.24588705 649.52318693 1004.56980637 649.24198126 1013.81640625 640.078125 C1021.23562835 631.91529067 1023.43461776 624.54944074 1023.1640625 613.55078125 C1022.36141603 605.53333505 1019.0749588 598.26960633 1012.81640625 593.078125 C1008.30328312 590.12325785 1003.57474848 587.60759814 998.81640625 585.078125 C947.31192939 557.4645913 899.27471376 523.71320832 856.58056641 483.72900391 C854.65649358 481.92848073 852.72679083 480.13410175 850.796875 478.33984375 C831.590534 460.45178381 831.590534 460.45178381 823.453125 450.9296875 C821.85240129 449.11884493 820.17948321 447.44404257 818.44140625 445.765625 C814.69655864 442.08750074 811.4813248 438.0436963 808.1953125 433.95703125 C805.86263409 431.13406903 803.4339342 428.44775888 800.94140625 425.765625 C795.76682405 420.12279073 791.04922667 414.19453775 786.39599609 408.12451172 C784.72618253 405.96123857 783.03203862 403.81849299 781.3359375 401.67578125 C764.60922642 380.35145384 749.48149501 357.4783665 735.81640625 334.078125 C735.36749023 333.31870605 734.91857422 332.55928711 734.45605469 331.77685547 C693.8047596 262.88082938 666.40556005 186.55137722 645.62890625 33.703125 C645.56444809 32.47260406 645.56444809 32.47260406 645.49868774 31.21722412 C645.37638702 28.82994523 645.26091063 26.44244808 645.1484375 24.0546875 C645.09713684 23.0293692 645.09713684 23.0293692 645.0447998 21.9833374 C644.8272456 17.08060831 644.79962435 12.18362103 644.8079071 7.27670288 C644.8088274 6.23619671 644.8088274 6.23619671 644.80976629 5.17467022 C644.81135759 3.47582112 644.81379617 1.77697284 644.81640625 0.078125 C706.46768641 0.00957605 768.11897098 -0.05402311 829.77027893 -0.09124756 C830.68254634 -0.09179979 831.59481376 -0.09235202 832.53472564 -0.09292098 C852.36012643 -0.10489224 872.18552763 -0.11597302 892.01092943 -0.12613632 C901.73311646 -0.13112572 911.45530337 -0.13631193 921.17749023 -0.14160156 C922.14497147 -0.1421246 923.1124527 -0.14264763 924.10925155 -0.14318652 C955.47553146 -0.16023591 986.84178257 -0.19028413 1018.20804503 -0.22706388 C1050.43741623 -0.26478712 1082.66677149 -0.28941512 1114.89616439 -0.29753496 C1119.44696651 -0.2986876 1123.99776858 -0.29999015 1128.54857063 -0.30138397 C1129.44424534 -0.30165366 1130.33992004 -0.30192336 1131.2627364 -0.30220122 C1145.68827294 -0.30693051 1160.11376022 -0.32548926 1174.53927666 -0.34920314 C1189.03716744 -0.37274145 1203.53500934 -0.38174959 1218.03291856 -0.37588051 C1226.64940036 -0.37283518 1235.26570339 -0.38097597 1243.88215294 -0.40506517 C1249.63713452 -0.42005709 1255.39199895 -0.42053508 1261.14698859 -0.40920225 C1264.42671248 -0.40315955 1267.70602964 -0.40564465 1270.98573106 -0.42140773 C1274.52042544 -0.43741208 1278.05423931 -0.42883735 1281.58891964 -0.41406631 C1283.11287872 -0.4298284 1283.11287872 -0.4298284 1284.66762486 -0.4459089 C1294.08851218 -0.35667935 1301.09383769 2.67897413 1307.9609375 9.09375 C1316.37332986 18.09058226 1318.12489463 26.90121607 1318.06808853 38.87059879 C1318.07099541 39.94026257 1318.07390229 41.00992636 1318.07689726 42.11200419 C1318.08420674 45.70298694 1318.07724916 49.29379933 1318.07037354 52.88478088 C1318.07267766 55.48313943 1318.07585386 58.08149733 1318.07982802 60.67985386 C1318.0870483 66.33334258 1318.08683414 71.9867931 1318.0817337 77.64028358 C1318.07416847 86.04887449 1318.07803681 94.45743318 1318.08415032 102.86602387 C1318.09468826 117.89259072 1318.09376541 132.91914057 1318.08799249 147.94570904 C1318.08295824 161.11517948 1318.08164936 174.2846437 1318.08403778 187.45411491 C1318.08426694 188.76529555 1318.08426694 188.76529555 1318.08450072 190.10296468 C1318.08512345 193.6517874 1318.08576025 197.20061011 1318.08642025 200.74943282 C1318.092542 234.0645276 1318.08698839 267.37961159 1318.07622645 300.69470471 C1318.06676068 330.22119892 1318.06756235 359.74767587 1318.07714844 389.27416992 C1318.08789382 422.48215259 1318.09208208 455.69012568 1318.08592391 488.89810985 C1318.08528256 492.45002202 1318.08465687 496.00193419 1318.08403778 499.55384636 C1318.08387963 500.42834541 1318.08372147 501.30284447 1318.08355852 502.2038435 C1318.08129585 515.3358196 1318.08392161 528.46778873 1318.08899689 541.59976387 C1318.09475587 556.57501467 1318.09320189 571.55024588 1318.0824354 586.52549428 C1318.07713151 594.15147058 1318.07483419 601.77741498 1318.0817337 609.40339088 C1318.14886715 688.83330706 1312.69329744 765.86451676 1288.81640625 842.078125 C1288.42727051 843.32255371 1288.03813477 844.56698242 1287.63720703 845.84912109 C1279.39616415 871.92943909 1269.44445016 897.31966941 1257.81640625 922.078125 C1257.3682959 923.03992676 1256.92018555 924.00172852 1256.45849609 924.99267578 C1236.84341861 966.99084677 1212.72782292 1006.9941965 1184.07275391 1043.47460938 C1182.76483698 1045.14394447 1181.4677825 1046.82132902 1180.171875 1048.5 C1171.50989977 1059.6791038 1162.33804209 1070.38162541 1152.828125 1080.84765625 C1150.95901736 1082.92000666 1149.13420755 1085.02332325 1147.31640625 1087.140625 C1144.12439579 1090.81291481 1140.7139557 1094.22229345 1137.22265625 1097.609375 C1135.2251102 1099.65880536 1133.3655525 1101.74406145 1131.50390625 1103.9140625 C1128.00198028 1107.94709514 1124.24607925 1111.59149138 1120.31640625 1115.203125 C1118.90617184 1116.51033235 1117.49601753 1117.81762613 1116.0859375 1119.125 C1115.37646973 1119.78048828 1114.66700195 1120.43597656 1113.93603516 1121.11132812 C1111.88900462 1123.01076121 1109.85612194 1124.92402705 1107.828125 1126.84375 C1101.56874082 1132.75996966 1095.27049688 1138.50835116 1088.53515625 1143.88671875 C1086.08019833 1145.86549949 1083.68001666 1147.89656634 1081.29077148 1149.95385742 C1048.37852669 1178.23397129 1011.08446329 1202.55377638 972.7421875 1222.76953125 C961.5284121 1228.71104975 953.51941673 1233.5340445 949.4765625 1246.22265625 C947.20373883 1256.05362725 949.14115524 1264.69536659 954.13671875 1273.37109375 C958.85246874 1280.23856573 964.91349372 1283.75990818 972.81640625 1286.078125 C975.80524023 1286.3771951 975.80524023 1286.3771951 978.94268608 1286.33983803 C980.15640385 1286.34730352 981.37012161 1286.35476901 982.6206187 1286.36246073 C983.95890189 1286.36068414 985.29718485 1286.35872327 986.63546753 1286.3565979 C988.0637052 1286.36160259 989.49194004 1286.3674789 990.9201709 1286.37415063 C994.84017232 1286.38994366 998.76010205 1286.39338093 1002.68013144 1286.39479923 C1006.90912509 1286.39849449 1011.13807947 1286.41365061 1015.36705017 1286.42741394 C1022.69248925 1286.44968662 1030.01791436 1286.46469986 1037.34337997 1286.47478104 C1047.93476573 1286.48936721 1058.52610282 1286.51490388 1069.11746003 1286.54311232 C1086.30127557 1286.58858142 1103.48509812 1286.62519575 1120.66894531 1286.65625 C1137.36134064 1286.68643505 1154.05371883 1286.72078513 1170.74609375 1286.76074219 C1171.77503088 1286.76320374 1172.80396802 1286.76566528 1173.86408506 1286.76820143 C1179.02596601 1286.78057602 1184.18784675 1286.79303255 1189.34972739 1286.80552983 C1232.17192978 1286.9090994 1274.99415346 1286.99830208 1317.81640625 1287.078125 C1317.82514245 1290.39697097 1317.83034179 1293.71581392 1317.83496094 1297.03466797 C1317.83744843 1297.96341232 1317.83993591 1298.89215668 1317.84249878 1299.8490448 C1317.85131019 1308.31703898 1317.55620245 1316.74995936 1317.06640625 1325.203125 C1317.02350464 1325.95859619 1316.98060303 1326.71406738 1316.93640137 1327.49243164 C1312.37669038 1406.04659461 1293.49373121 1483.39141329 1256.81640625 1565.078125 C1256.1500415 1566.51140137 1256.1500415 1566.51140137 1255.47021484 1567.97363281 C1235.34667094 1611.09255399 1210.4126233 1651.9156417 1181.10498047 1689.42626953 C1179.78588309 1691.1172534 1178.47469557 1692.81416879 1177.1640625 1694.51171875 C1168.27504925 1705.97960368 1158.85936204 1716.94281147 1149.046875 1727.62890625 C1147.09737606 1729.76959948 1145.19937321 1731.94163562 1143.31640625 1734.140625 C1139.81482565 1738.17900452 1136.01827479 1741.89249793 1132.21484375 1745.64453125 C1130.18333403 1747.7058188 1128.29909566 1749.79999056 1126.44140625 1752.015625 C1123.02829455 1756.00969189 1119.19312848 1759.49232229 1115.29833984 1763.00268555 C1112.30380533 1765.70359218 1109.39259539 1768.45176682 1106.56640625 1771.328125 C1103.57339078 1774.357715 1100.48767362 1777.20569569 1097.2578125 1779.98046875 C1095.31672477 1781.64825132 1093.38989669 1783.32898622 1091.46875 1785.01953125 C1084.2520734 1791.35208645 1076.92279907 1797.46645945 1069.328125 1803.33984375 C1066.94711417 1805.18348518 1064.60009812 1807.06090082 1062.2734375 1808.97265625 C1053.88203536 1815.85039073 1045.17652024 1822.06492265 1036.17578125 1828.12109375 C1032.82322502 1830.37915573 1029.55068581 1832.71491533 1026.31640625 1835.140625 C950.4806947 1890.76896471 854.89631319 1925.334351 705.50390625 1948.828125 C704.78350159 1948.89333344 704.06309692 1948.95854187 703.32086182 1949.02572632 C670.04947969 1951.99268925 670.04947969 1951.99268925 659.09765625 1944.125 C652.58359629 1938.64552604 647.61459872 1932.5302813 645.81640625 1924.078125 C645.72925681 1922.64997136 645.69078031 1921.21835447 645.6903984 1919.78754431 C645.68774259 1918.93043625 645.68508678 1918.07332818 645.68235049 1917.19024715 C645.68559957 1915.78211147 645.68559957 1915.78211147 645.6889143 1914.3455286 C645.68644855 1912.84010672 645.68644855 1912.84010672 645.68393299 1911.30427226 C645.67959363 1907.91418389 645.68240069 1904.52413801 645.68510437 1901.13404846 C645.68340315 1898.68972949 645.68125389 1896.24541079 645.67869312 1893.80109257 C645.67408674 1888.47247987 645.67254795 1883.14387928 645.67365837 1877.81526566 C645.67526689 1869.89108069 645.67110917 1861.96690625 645.66557789 1854.04272341 C645.65692094 1841.52880087 645.651563 1829.01487972 645.64837638 1816.50095469 C645.6432357 1796.63010225 645.62777216 1776.75926778 645.6087999 1756.88842421 C645.60477828 1752.6601775 645.6008574 1748.43193071 645.59693354 1744.20368391 C645.59615089 1743.36076557 645.59536823 1742.51784724 645.59456186 1741.64938592 C645.59297627 1739.9412517 645.59139144 1738.23311747 645.58980737 1736.52498325 C645.58821609 1734.81049971 645.58662184 1733.09601617 645.58502464 1731.38153263 C645.56618877 1711.15645601 645.54910574 1690.93137816 645.53344727 1670.70629883 C645.53275835 1669.82119368 645.53206943 1668.93608853 645.53135963 1668.02416202 C645.50910436 1639.33168723 645.49726115 1610.63921764 645.48978071 1581.94673561 C645.48201422 1552.44894087 645.46094837 1522.95118167 645.4242381 1493.4534082 C645.4190645 1489.28623468 645.41405714 1485.11906098 645.40915871 1480.95188713 C645.40770827 1479.7216938 645.40770827 1479.7216938 645.40622853 1478.46664809 C645.39109218 1465.27323378 645.39019225 1452.07985507 645.39481584 1438.88643446 C645.39920235 1425.62116957 645.38927426 1412.35597762 645.36472877 1399.09073413 C645.35060135 1391.21271724 645.34758347 1383.33487919 645.3605713 1375.45685937 C645.3690527 1369.56948861 645.35666804 1363.68228031 645.33628235 1357.79493474 C645.33128759 1355.41664667 645.33301678 1353.03833278 645.34221502 1350.66005725 C645.78532698 1328.57474402 645.78532698 1328.57474402 635.109375 1309.953125 C628.62143597 1304.64782562 621.61697849 1301.95405971 613.29861867 1301.9504745 C612.62925226 1301.94882372 611.95988585 1301.94717294 611.27023561 1301.94547214 C609.00671178 1301.94112687 606.74325236 1301.94395479 604.47972679 1301.94669724 C602.84174257 1301.94504856 601.20375874 1301.94296273 599.56577557 1301.94047713 C595.03177192 1301.93488829 590.49778707 1301.93558693 585.96378107 1301.93725472 C581.04349898 1301.93798332 576.1232223 1301.93296877 571.20294249 1301.9286797 C561.42936712 1301.9210838 551.65579721 1301.91890584 541.8822192 1301.91835065 C530.18156873 1301.91743857 518.48092334 1301.91077569 506.78027505 1301.90400383 C479.16790402 1301.88830714 451.55553319 1301.88225343 423.94315854 1301.8775968 C409.89763767 1301.87521469 395.85211726 1301.87151144 381.80659675 1301.8675597 C336.76539002 1301.85489421 291.72418332 1301.84411043 246.68297484 1301.84071924 C244.52965277 1301.840557 242.37633069 1301.84039144 240.22300862 1301.84022486 C235.90439935 1301.83989105 231.58579007 1301.83956057 227.2671808 1301.8392303 C222.21100758 1301.8388434 217.15483436 1301.83845379 212.09866114 1301.83805923 C210.65153649 1301.83794682 209.20441183 1301.8378354 207.75728718 1301.83772498 C161.27743655 1301.83417529 114.79760138 1301.81909644 68.31775665 1301.79578724 C34.92479305 1301.77904777 1.53183236 1301.76357143 -31.86113548 1301.75905228 C-32.54774861 1301.75895879 -33.23436175 1301.7588653 -33.94178134 1301.75876899 C-49.01407055 1301.75675002 -64.08635971 1301.75559391 -79.15864905 1301.7552404 C-84.55174909 1301.75510422 -89.94484912 1301.75489523 -95.33794915 1301.75464715 C-96.67964831 1301.75458559 -98.02134746 1301.75452727 -99.36304662 1301.7544722 C-121.41238518 1301.75352356 -143.46170609 1301.74265347 -165.51103901 1301.72766769 C-186.98857186 1301.71332263 -208.46608419 1301.71005443 -229.94362052 1301.71810767 C-242.71258836 1301.72257332 -255.48149011 1301.71866602 -268.25044931 1301.70286916 C-276.77326464 1301.69314886 -285.29603346 1301.6942691 -293.81884832 1301.70430539 C-298.6792946 1301.70971878 -303.53961358 1301.71033913 -308.40004952 1301.69779667 C-312.82085759 1301.68648354 -317.24143441 1301.68895366 -321.66223434 1301.70246375 C-323.25242544 1301.7049014 -324.8426342 1301.70230087 -326.43280584 1301.69406727 C-336.59956767 1301.64488224 -346.12211026 1301.91908995 -354.484375 1308.37109375 C-361.47040816 1315.3892466 -365.0513684 1323.66916728 -365.49609375 1333.453125 C-365.23749772 1342.29102458 -362.29902642 1349.70099589 -356.18359375 1356.078125 C-349.94627335 1360.94263804 -342.84158636 1364.49782637 -335.85379028 1368.1399231 C-286.8306375 1393.76030195 -241.36584008 1426.93146859 -200.85668945 1464.54858398 C-199.60264011 1465.69503359 -198.3359996 1466.8277359 -197.06323242 1467.95336914 C-190.37294982 1473.88337698 -184.0124945 1480.09528849 -177.70532227 1486.42602539 C-175.99152142 1488.1452117 -174.27240293 1489.85895083 -172.55273438 1491.57226562 C-166.88075556 1497.24081525 -161.38697239 1502.97137576 -156.18359375 1509.078125 C-154.56391558 1510.85382721 -152.93947657 1512.62520807 -151.30859375 1514.390625 C-147.26957222 1518.82443811 -143.40852497 1523.35867084 -139.64453125 1528.02734375 C-137.85079139 1530.25101174 -136.04486992 1532.46010978 -134.22265625 1534.66015625 C-125.81090106 1544.85042636 -117.91626539 1555.36578819 -110.18359375 1566.078125 C-109.66941895 1566.78549805 -109.15524414 1567.49287109 -108.62548828 1568.22167969 C-99.95097449 1580.17348294 -91.97926792 1592.53854295 -84.18359375 1605.078125 C-83.76513184 1605.75020996 -83.34666992 1606.42229492 -82.91552734 1607.11474609 C-80.26515477 1611.39417299 -77.70247858 1615.72013194 -75.18359375 1620.078125 C-74.68424316 1620.94147461 -74.18489258 1621.80482422 -73.67041016 1622.69433594 C-29.39415261 1699.64540025 -1.82908581 1783.95676939 13.390625 1933.1875 C13.43304642 1934.93734561 13.47581027 1936.68718295 13.5189209 1938.43701172 C13.62200743 1942.65063187 13.72053985 1946.86433466 13.81640625 1951.078125 C-47.43941653 1951.12953939 -108.6952418 1951.1772384 -169.95108032 1951.20515442 C-170.85757073 1951.20556859 -171.76406114 1951.20598276 -172.69802095 1951.20640948 C-192.39812121 1951.21538804 -212.09822169 1951.22369861 -231.79832252 1951.23132099 C-241.45913564 1951.23506302 -251.11994869 1951.23895268 -260.78076172 1951.24291992 C-261.74213282 1951.2433122 -262.70350393 1951.24370448 -263.69400749 1951.24410864 C-294.85928369 1951.2568945 -326.02454359 1951.27942979 -357.18980992 1951.30701666 C-389.21403636 1951.33531241 -421.23825377 1951.35378086 -453.2624925 1951.35986997 C-457.78486466 1951.36073444 -462.30723679 1951.36171136 -466.82960892 1951.36275673 C-467.7196836 1951.362959 -468.60975828 1951.36316127 -469.52680492 1951.36336967 C-483.85915062 1951.36691592 -498.19146843 1951.38083306 -512.52380275 1951.3986211 C-526.92984942 1951.41627957 -541.33586841 1951.42302975 -555.74192552 1951.41862913 C-564.30262193 1951.41634604 -572.86321708 1951.42244276 -581.42389522 1951.44051763 C-587.14297274 1951.4517686 -592.86198398 1951.45211505 -598.58106608 1951.44362044 C-601.83940987 1951.4390922 -605.09752367 1951.44094122 -608.35585468 1951.45277455 C-611.86924764 1951.46479403 -615.3821436 1951.45833614 -618.89552879 1951.44726849 C-620.40592128 1951.45909005 -620.40592128 1951.45909005 -621.94682676 1951.47115043 C-633.54046885 1951.38849024 -641.82174863 1948.24834828 -650.12890625 1940.19140625 C-657.37151877 1932.47908455 -658.63140629 1925.16986517 -658.56111717 1914.90524769 C-658.56547749 1913.79446375 -658.56983782 1912.6836798 -658.57433027 1911.53923574 C-658.58529895 1907.80832613 -658.57485633 1904.07778511 -658.56454468 1900.34687805 C-658.5680007 1897.64808892 -658.57264181 1894.94932537 -658.57872641 1892.2505433 C-658.58955862 1886.37768256 -658.58923452 1880.50490457 -658.58158493 1874.63204002 C-658.57023889 1865.89736217 -658.57603857 1857.16275413 -658.58520985 1848.42807674 C-658.60101746 1832.81986549 -658.59963238 1817.21169106 -658.59097311 1801.6034763 C-658.58342288 1787.92627688 -658.5814579 1774.24909095 -658.58504105 1760.57188988 C-658.5852702 1759.66420688 -658.58549936 1758.75652389 -658.58573546 1757.82133535 C-658.58666953 1754.13632341 -658.58762474 1750.45131149 -658.58861475 1746.76629957 C-658.59779729 1712.1736132 -658.58946666 1677.58095021 -658.57332406 1642.98826745 C-658.55912156 1612.32053485 -658.56033115 1581.65283967 -658.57470703 1550.98510742 C-658.59081892 1516.4989838 -658.59711123 1482.01288094 -658.58787024 1447.52675408 C-658.5869082 1443.8395085 -658.58596967 1440.15226291 -658.58504105 1436.46501732 C-658.58480381 1435.55718781 -658.58456658 1434.64935829 -658.58432216 1433.7140188 C-658.58092601 1420.07258286 -658.58487078 1406.43116201 -658.59247971 1392.78972816 C-658.60111092 1377.23836221 -658.59880211 1361.68703873 -658.58263747 1346.13567797 C-658.57467257 1338.21424801 -658.57125065 1330.29288721 -658.58158493 1322.37145805 C-658.63068436 1282.13682448 -657.81398626 1242.3978732 -651.6875 1202.5390625 C-651.51402794 1201.40287979 -651.51402794 1201.40287979 -651.33705139 1200.2437439 C-642.11809403 1141.08514083 -624.63232864 1083.27565431 -599.18359375 1029.078125 C-598.74080078 1028.12695801 -598.29800781 1027.17579102 -597.84179688 1026.19580078 C-574.73740134 976.68298608 -545.34345736 929.71789275 -509.7890625 888.15234375 C-507.42495188 885.38113345 -505.14515417 882.54885311 -502.87109375 879.703125 C-497.52012868 873.12689423 -491.6762316 867.02689444 -485.85888672 860.86669922 C-484.36841251 859.27544098 -482.89697279 857.67043348 -481.4375 856.05078125 C-475.94675255 849.95830806 -470.28474869 844.07496042 -464.49609375 838.265625 C-463.79508545 837.56002441 -463.09407715 836.85442383 -462.37182617 836.12744141 C-458.39565081 832.16296205 -454.31766995 828.38160763 -450.06567383 824.71508789 C-447.26764519 822.28146718 -444.57556554 819.73952709 -441.87109375 817.203125 C-437.12860059 812.79586289 -432.2830972 808.58748109 -427.23046875 804.53515625 C-424.92830717 802.67866954 -422.65177034 800.80316876 -420.38671875 798.90234375 C-409.96533019 790.1763125 -399.24195528 781.97963729 -388.18359375 774.078125 C-387.27802734 773.43053223 -386.37246094 772.78293945 -385.43945312 772.11572266 C-366.68715107 758.76230012 -347.33054753 746.7427518 -327.3269043 735.36499023 C-322.22011176 732.45293161 -317.14166403 729.49985705 -312.1328125 726.421875 C-311.26487061 725.89013672 -310.39692871 725.35839844 -309.50268555 724.81054688 C-303.79599268 720.54749892 -300.24717495 713.69230812 -298.6640625 706.82421875 C-297.42401333 697.05263131 -299.59622709 688.01525898 -305.45703125 680.046875 C-311.28582888 673.40046322 -318.36296493 669.62077256 -327.20606148 668.79634535 C-330.7889208 668.68457656 -334.36121313 668.66575131 -337.94581604 668.67939758 C-339.33127242 668.67395129 -340.71672417 668.6671969 -342.1021685 668.65925568 C-345.89001471 668.64129568 -349.67766421 668.64177937 -353.46554291 668.64538515 C-357.55747946 668.64601056 -361.6493509 668.62937433 -365.74125671 668.61486816 C-372.82437692 668.59210468 -379.90744802 668.58020094 -386.99060249 668.57573891 C-397.23155602 668.56927182 -407.47242086 668.5463246 -417.71333861 668.51939561 C-434.32979463 668.47614757 -450.94624692 668.44616949 -467.56274414 668.42456055 C-483.70110918 668.40354492 -499.83944365 668.37626471 -515.9777832 668.34057617 C-517.47072122 668.33727793 -517.47072122 668.33727793 -518.9938196 668.33391307 C-523.98706392 668.32284327 -528.98030796 668.31165049 -533.97355187 668.30039656 C-575.37687231 668.20723954 -616.78020942 668.13562854 -658.18359375 668.078125 C-658.21350287 662.99822468 -658.23475535 657.91837835 -658.24882507 652.83840942 C-658.25470572 651.11920273 -658.26273737 649.4000017 -658.2731781 647.68081665 C-658.71621199 572.71619038 -641.1960725 496.1630706 -536.18359375 283.078125 C-535.35625732 281.9319873 -535.35625732 281.9319873 -534.51220703 280.76269531 C-526.86364625 270.17769131 -518.95031671 259.87675015 -510.62060547 249.81933594 C-508.53856243 247.2965478 -506.4895258 244.7472073 -504.43359375 242.203125 C-500.843105 237.81694186 -497.10520654 233.58897089 -493.2890625 229.3984375 C-491.4544169 227.37658316 -489.65590589 225.33133978 -487.87109375 223.265625 C-478.91740946 213.04718262 -469.52629704 203.31783199 -459.93359375 193.703125 C-459.41435333 193.18129639 -458.89511292 192.65946777 -458.36013794 192.12182617 C-453.02316407 186.76390648 -447.66409555 181.48250087 -441.91357422 176.56298828 C-439.33175929 174.34698512 -436.86074988 172.02216134 -434.37109375 169.703125 C-428.82701388 164.5875308 -423.06338385 159.80471756 -417.18359375 155.078125 C-415.95469356 154.07027184 -414.72689582 153.06107345 -413.5 152.05078125 C-373.70175955 119.34266405 -330.13536551 92.25130054 -284.18359375 69.078125 C-283.15250488 68.55718262 -282.12141602 68.03624023 -281.05908203 67.49951172 C-254.67421766 54.26240269 -227.14365726 43.49508358 -199.18359375 34.078125 C-197.97396973 33.66997559 -196.7643457 33.26182617 -195.51806641 32.84130859 C-150.746313 17.90962297 -104.11814258 7.98425382 -57.18359375 3.078125 C-56.12906006 2.96694336 -56.12906006 2.96694336 -55.05322266 2.85351562 C-36.68455633 0.93678523 -18.47119784 -0.11857362 0 0 Z " fill="#0063FE" transform="translate(658.18359375,-0.078125)"/>
</svg>
